<svg xmlns="http://www.w3.org/2000/svg" width="12.251" height="8.171" viewBox="0 0 12.251 8.171">
  <path id="Icon_ionic-ios-arrow-round-forward" data-name="Icon ionic-ios-arrow-round-forward" d="M15.688,11.408a.556.556,0,0,0,0,.783l2.587,2.591H8.424a.553.553,0,0,0,0,1.106h9.842L15.679,18.48a.56.56,0,0,0,0,.783.551.551,0,0,0,.779,0l3.506-3.532h0a.621.621,0,0,0,.115-.174.528.528,0,0,0,.043-.213.555.555,0,0,0-.157-.387l-3.506-3.532A.542.542,0,0,0,15.688,11.408Z" transform="translate(-7.875 -11.252)" fill="#fff"/>
</svg>
